<svg width="374" height="330" viewBox="0 0 374 330" fill="none" xmlns="http://www.w3.org/2000/svg">
<mask id="path-1-outside-1_209_28" maskUnits="userSpaceOnUse" x="95" y="273" width="210" height="54" fill="black">
<rect fill="white" x="95" y="273" width="210" height="54"/>
<path d="M111.743 324.188C109.243 324.188 107.138 323.667 105.43 322.625C103.763 321.542 102.409 320.125 101.368 318.375C100.368 316.583 99.5967 314.625 99.055 312.5C98.555 310.333 98.2217 308.146 98.055 305.938C97.8883 303.729 97.805 301.688 97.805 299.812C97.805 297.896 97.8883 295.833 98.055 293.625C98.2633 291.375 98.6175 289.167 99.1175 287C99.6592 284.833 100.451 282.875 101.493 281.125C102.534 279.333 103.909 277.896 105.618 276.812C107.326 275.729 109.451 275.188 111.993 275.188C114.451 275.188 116.493 275.729 118.118 276.812C119.784 277.896 121.118 279.333 122.118 281.125C123.118 282.917 123.868 284.896 124.368 287.062C124.868 289.229 125.201 291.417 125.368 293.625C125.534 295.792 125.618 297.792 125.618 299.625C125.618 301.5 125.534 303.542 125.368 305.75C125.201 307.958 124.847 310.146 124.305 312.312C123.805 314.479 123.034 316.458 121.993 318.25C120.993 320.042 119.659 321.479 117.993 322.562C116.326 323.646 114.243 324.188 111.743 324.188ZM111.68 318.625C114.013 318.625 115.763 317.625 116.93 315.625C117.722 314.292 118.284 312.646 118.618 310.688C118.993 308.688 119.243 306.667 119.368 304.625C119.493 302.583 119.555 300.833 119.555 299.375C119.555 298.333 119.513 297.042 119.43 295.5C119.388 293.958 119.243 292.333 118.993 290.625C118.743 288.917 118.326 287.312 117.743 285.812C117.201 284.312 116.43 283.104 115.43 282.188C114.43 281.229 113.159 280.75 111.618 280.75C110.118 280.75 108.888 281.208 107.93 282.125C106.972 283 106.201 284.146 105.618 285.562C105.076 286.979 104.68 288.521 104.43 290.188C104.18 291.812 104.013 293.375 103.93 294.875C103.888 296.375 103.868 297.625 103.868 298.625C103.868 300.125 103.909 301.938 103.993 304.062C104.118 306.146 104.347 308.208 104.68 310.25C105.055 312.292 105.597 314 106.305 315.375C107.43 317.542 109.222 318.625 111.68 318.625ZM156.215 324.188C153.548 324.188 151.152 323.667 149.027 322.625C146.902 321.542 145.173 319.792 143.84 317.375C143.298 316.417 142.84 315.417 142.465 314.375C142.132 313.292 141.965 312.188 141.965 311.062C141.965 308.938 143.007 307.875 145.09 307.875C146.048 307.875 146.757 308.146 147.215 308.688C147.673 309.188 148.027 309.854 148.277 310.688C148.527 311.521 148.777 312.417 149.027 313.375C149.277 314.292 149.652 315.167 150.152 316C150.652 316.833 151.382 317.521 152.34 318.062C153.34 318.562 154.673 318.812 156.34 318.812C158.632 318.812 160.423 318.021 161.715 316.438C163.007 314.812 163.652 312.917 163.652 310.75C163.652 309 163.257 307.542 162.465 306.375C161.715 305.208 160.715 304.229 159.465 303.438C158.215 302.604 156.84 301.854 155.34 301.188C153.84 300.521 152.319 299.833 150.777 299.125C149.277 298.375 147.902 297.521 146.652 296.562C145.402 295.562 144.382 294.333 143.59 292.875C142.84 291.375 142.465 289.542 142.465 287.375C142.465 284.833 143.027 282.667 144.152 280.875C145.277 279.042 146.798 277.646 148.715 276.688C150.673 275.688 152.861 275.188 155.277 275.188C157.444 275.188 159.548 275.646 161.59 276.562C163.632 277.438 165.319 278.729 166.652 280.438C168.027 282.104 168.715 284.125 168.715 286.5C168.715 288.5 167.715 289.5 165.715 289.5C164.715 289.5 163.965 289.208 163.465 288.625C163.007 288 162.611 287.25 162.277 286.375C161.986 285.458 161.611 284.562 161.152 283.688C160.736 282.812 160.069 282.083 159.152 281.5C158.236 280.875 156.923 280.562 155.215 280.562C153.007 280.562 151.298 281.104 150.09 282.188C148.923 283.271 148.34 284.938 148.34 287.188C148.34 288.646 148.715 289.875 149.465 290.875C150.257 291.833 151.277 292.688 152.527 293.438C153.819 294.146 155.215 294.833 156.715 295.5C158.257 296.125 159.777 296.833 161.277 297.625C162.819 298.375 164.215 299.312 165.465 300.438C166.757 301.521 167.777 302.875 168.527 304.5C169.319 306.125 169.715 308.125 169.715 310.5C169.715 314.667 168.507 318 166.09 320.5C163.715 322.958 160.423 324.188 156.215 324.188ZM199.938 324.188C198.771 324.188 197.958 323.833 197.5 323.125C197.083 322.375 196.875 321.479 196.875 320.438V278.938C196.875 277.854 197.104 276.958 197.562 276.25C198.021 275.542 198.833 275.188 200 275.188C201.167 275.188 201.958 275.542 202.375 276.25C202.833 276.958 203.062 277.854 203.062 278.938V320.438C203.062 321.479 202.833 322.375 202.375 323.125C201.917 323.833 201.104 324.188 199.938 324.188ZM233.535 324.188C232.493 324.188 231.764 323.854 231.348 323.188C230.931 322.521 230.723 321.708 230.723 320.75V279.562C230.723 278.354 230.973 277.333 231.473 276.5C231.973 275.625 232.889 275.188 234.223 275.188C235.181 275.188 235.952 275.521 236.535 276.188C237.118 276.812 237.556 277.521 237.848 278.312L251.91 312.688V278.688C251.91 277.729 252.118 276.917 252.535 276.25C252.952 275.542 253.681 275.188 254.723 275.188C255.806 275.188 256.556 275.542 256.973 276.25C257.389 276.917 257.598 277.729 257.598 278.688V319.75C257.598 320.958 257.348 322 256.848 322.875C256.348 323.75 255.41 324.188 254.035 324.188C253.077 324.188 252.285 323.854 251.66 323.188C251.077 322.521 250.618 321.792 250.285 321L236.41 286.938V320.75C236.41 321.75 236.202 322.583 235.785 323.25C235.368 323.875 234.618 324.188 233.535 324.188ZM288.32 324.25C287.153 324.25 286.341 323.896 285.883 323.188C285.466 322.438 285.258 321.542 285.258 320.5V281.625H276.945C276.028 281.625 275.278 281.417 274.695 281C274.153 280.542 273.883 279.812 273.883 278.812C273.883 277.854 274.153 277.167 274.695 276.75C275.278 276.292 276.028 276.062 276.945 276.062H299.633C300.591 276.062 301.341 276.292 301.883 276.75C302.466 277.167 302.758 277.875 302.758 278.875C302.758 279.875 302.466 280.583 301.883 281C301.299 281.417 300.549 281.625 299.633 281.625H291.383V320.5C291.383 321.542 291.153 322.438 290.695 323.188C290.278 323.896 289.487 324.25 288.32 324.25Z"/>
</mask>
<path d="M111.743 324.188C109.243 324.188 107.138 323.667 105.43 322.625C103.763 321.542 102.409 320.125 101.368 318.375C100.368 316.583 99.5967 314.625 99.055 312.5C98.555 310.333 98.2217 308.146 98.055 305.938C97.8883 303.729 97.805 301.688 97.805 299.812C97.805 297.896 97.8883 295.833 98.055 293.625C98.2633 291.375 98.6175 289.167 99.1175 287C99.6592 284.833 100.451 282.875 101.493 281.125C102.534 279.333 103.909 277.896 105.618 276.812C107.326 275.729 109.451 275.188 111.993 275.188C114.451 275.188 116.493 275.729 118.118 276.812C119.784 277.896 121.118 279.333 122.118 281.125C123.118 282.917 123.868 284.896 124.368 287.062C124.868 289.229 125.201 291.417 125.368 293.625C125.534 295.792 125.618 297.792 125.618 299.625C125.618 301.5 125.534 303.542 125.368 305.75C125.201 307.958 124.847 310.146 124.305 312.312C123.805 314.479 123.034 316.458 121.993 318.25C120.993 320.042 119.659 321.479 117.993 322.562C116.326 323.646 114.243 324.188 111.743 324.188ZM111.68 318.625C114.013 318.625 115.763 317.625 116.93 315.625C117.722 314.292 118.284 312.646 118.618 310.688C118.993 308.688 119.243 306.667 119.368 304.625C119.493 302.583 119.555 300.833 119.555 299.375C119.555 298.333 119.513 297.042 119.43 295.5C119.388 293.958 119.243 292.333 118.993 290.625C118.743 288.917 118.326 287.312 117.743 285.812C117.201 284.312 116.43 283.104 115.43 282.188C114.43 281.229 113.159 280.75 111.618 280.75C110.118 280.75 108.888 281.208 107.93 282.125C106.972 283 106.201 284.146 105.618 285.562C105.076 286.979 104.68 288.521 104.43 290.188C104.18 291.812 104.013 293.375 103.93 294.875C103.888 296.375 103.868 297.625 103.868 298.625C103.868 300.125 103.909 301.938 103.993 304.062C104.118 306.146 104.347 308.208 104.68 310.25C105.055 312.292 105.597 314 106.305 315.375C107.43 317.542 109.222 318.625 111.68 318.625ZM156.215 324.188C153.548 324.188 151.152 323.667 149.027 322.625C146.902 321.542 145.173 319.792 143.84 317.375C143.298 316.417 142.84 315.417 142.465 314.375C142.132 313.292 141.965 312.188 141.965 311.062C141.965 308.938 143.007 307.875 145.09 307.875C146.048 307.875 146.757 308.146 147.215 308.688C147.673 309.188 148.027 309.854 148.277 310.688C148.527 311.521 148.777 312.417 149.027 313.375C149.277 314.292 149.652 315.167 150.152 316C150.652 316.833 151.382 317.521 152.34 318.062C153.34 318.562 154.673 318.812 156.34 318.812C158.632 318.812 160.423 318.021 161.715 316.438C163.007 314.812 163.652 312.917 163.652 310.75C163.652 309 163.257 307.542 162.465 306.375C161.715 305.208 160.715 304.229 159.465 303.438C158.215 302.604 156.84 301.854 155.34 301.188C153.84 300.521 152.319 299.833 150.777 299.125C149.277 298.375 147.902 297.521 146.652 296.562C145.402 295.562 144.382 294.333 143.59 292.875C142.84 291.375 142.465 289.542 142.465 287.375C142.465 284.833 143.027 282.667 144.152 280.875C145.277 279.042 146.798 277.646 148.715 276.688C150.673 275.688 152.861 275.188 155.277 275.188C157.444 275.188 159.548 275.646 161.59 276.562C163.632 277.438 165.319 278.729 166.652 280.438C168.027 282.104 168.715 284.125 168.715 286.5C168.715 288.5 167.715 289.5 165.715 289.5C164.715 289.5 163.965 289.208 163.465 288.625C163.007 288 162.611 287.25 162.277 286.375C161.986 285.458 161.611 284.562 161.152 283.688C160.736 282.812 160.069 282.083 159.152 281.5C158.236 280.875 156.923 280.562 155.215 280.562C153.007 280.562 151.298 281.104 150.09 282.188C148.923 283.271 148.34 284.938 148.34 287.188C148.34 288.646 148.715 289.875 149.465 290.875C150.257 291.833 151.277 292.688 152.527 293.438C153.819 294.146 155.215 294.833 156.715 295.5C158.257 296.125 159.777 296.833 161.277 297.625C162.819 298.375 164.215 299.312 165.465 300.438C166.757 301.521 167.777 302.875 168.527 304.5C169.319 306.125 169.715 308.125 169.715 310.5C169.715 314.667 168.507 318 166.09 320.5C163.715 322.958 160.423 324.188 156.215 324.188ZM199.938 324.188C198.771 324.188 197.958 323.833 197.5 323.125C197.083 322.375 196.875 321.479 196.875 320.438V278.938C196.875 277.854 197.104 276.958 197.562 276.25C198.021 275.542 198.833 275.188 200 275.188C201.167 275.188 201.958 275.542 202.375 276.25C202.833 276.958 203.062 277.854 203.062 278.938V320.438C203.062 321.479 202.833 322.375 202.375 323.125C201.917 323.833 201.104 324.188 199.938 324.188ZM233.535 324.188C232.493 324.188 231.764 323.854 231.348 323.188C230.931 322.521 230.723 321.708 230.723 320.75V279.562C230.723 278.354 230.973 277.333 231.473 276.5C231.973 275.625 232.889 275.188 234.223 275.188C235.181 275.188 235.952 275.521 236.535 276.188C237.118 276.812 237.556 277.521 237.848 278.312L251.91 312.688V278.688C251.91 277.729 252.118 276.917 252.535 276.25C252.952 275.542 253.681 275.188 254.723 275.188C255.806 275.188 256.556 275.542 256.973 276.25C257.389 276.917 257.598 277.729 257.598 278.688V319.75C257.598 320.958 257.348 322 256.848 322.875C256.348 323.75 255.41 324.188 254.035 324.188C253.077 324.188 252.285 323.854 251.66 323.188C251.077 322.521 250.618 321.792 250.285 321L236.41 286.938V320.75C236.41 321.75 236.202 322.583 235.785 323.25C235.368 323.875 234.618 324.188 233.535 324.188ZM288.32 324.25C287.153 324.25 286.341 323.896 285.883 323.188C285.466 322.438 285.258 321.542 285.258 320.5V281.625H276.945C276.028 281.625 275.278 281.417 274.695 281C274.153 280.542 273.883 279.812 273.883 278.812C273.883 277.854 274.153 277.167 274.695 276.75C275.278 276.292 276.028 276.062 276.945 276.062H299.633C300.591 276.062 301.341 276.292 301.883 276.75C302.466 277.167 302.758 277.875 302.758 278.875C302.758 279.875 302.466 280.583 301.883 281C301.299 281.417 300.549 281.625 299.633 281.625H291.383V320.5C291.383 321.542 291.153 322.438 290.695 323.188C290.278 323.896 289.487 324.25 288.32 324.25Z" fill="black"/>
<path d="M105.43 322.625L104.34 324.302L104.364 324.318L104.389 324.333L105.43 322.625ZM101.368 318.375L99.6211 319.35L99.6347 319.374L99.6489 319.398L101.368 318.375ZM99.055 312.5L97.1062 312.95L97.1113 312.972L97.117 312.994L99.055 312.5ZM98.055 293.625L96.0635 293.441L96.062 293.458L96.0607 293.474L98.055 293.625ZM99.1175 287L97.1772 286.515L97.1728 286.533L97.1687 286.55L99.1175 287ZM101.493 281.125L103.211 282.148L103.216 282.139L103.222 282.13L101.493 281.125ZM118.118 276.812L117.008 278.477L117.018 278.483L117.028 278.489L118.118 276.812ZM125.368 293.625L123.373 293.776L123.373 293.778L125.368 293.625ZM124.305 312.312L122.365 311.827L122.36 311.845L122.356 311.863L124.305 312.312ZM121.993 318.25L120.263 317.245L120.255 317.26L120.246 317.275L121.993 318.25ZM116.93 315.625L115.21 314.604L115.206 314.611L115.202 314.617L116.93 315.625ZM118.618 310.688L116.652 310.319L116.649 310.335L116.646 310.352L118.618 310.688ZM119.43 295.5L117.431 295.554L117.431 295.581L117.433 295.608L119.43 295.5ZM118.993 290.625L117.014 290.915L118.993 290.625ZM117.743 285.812L115.861 286.492L115.87 286.515L115.878 286.537L117.743 285.812ZM115.43 282.188L114.046 283.631L114.062 283.647L114.079 283.662L115.43 282.188ZM107.93 282.125L109.279 283.602L109.296 283.586L109.312 283.57L107.93 282.125ZM105.618 285.562L103.768 284.801L103.758 284.824L103.749 284.848L105.618 285.562ZM104.43 290.188L106.407 290.492L106.408 290.484L104.43 290.188ZM103.93 294.875L101.933 294.764L101.932 294.792L101.931 294.819L103.93 294.875ZM103.993 304.062L101.994 304.141L101.995 304.162L101.996 304.182L103.993 304.062ZM104.68 310.25L102.706 310.572L102.709 310.592L102.713 310.611L104.68 310.25ZM106.305 315.375L104.527 316.291L104.53 316.297L106.305 315.375ZM111.743 322.188C109.519 322.188 107.796 321.725 106.471 320.917L104.389 324.333C106.48 325.608 108.966 326.188 111.743 326.188V322.188ZM106.52 320.948C105.117 320.036 103.975 318.845 103.086 317.352L99.6489 319.398C100.843 321.405 102.41 323.047 104.34 324.302L106.52 320.948ZM103.114 317.4C102.204 315.77 101.495 313.975 100.993 312.006L97.117 312.994C97.6985 315.275 98.5311 317.397 99.6211 319.35L103.114 317.4ZM101.004 312.05C100.526 309.982 100.208 307.894 100.049 305.787L96.0607 306.088C96.235 308.398 96.5836 310.685 97.1062 312.95L101.004 312.05ZM100.049 305.787C99.8858 303.62 99.805 301.629 99.805 299.812H95.805C95.805 301.746 95.8909 303.838 96.0607 306.088L100.049 305.787ZM99.805 299.812C99.805 297.953 99.8859 295.941 100.049 293.776L96.0607 293.474C95.8908 295.725 95.805 297.839 95.805 299.812H99.805ZM100.046 293.809C100.247 291.647 100.587 289.528 101.066 287.45L97.1687 286.55C96.6482 288.806 96.28 291.103 96.0635 293.441L100.046 293.809ZM101.058 287.485C101.557 285.489 102.278 283.715 103.211 282.148L99.7739 280.102C98.6234 282.035 97.7616 284.177 97.1772 286.515L101.058 287.485ZM103.222 282.13C104.106 280.609 105.258 279.409 106.689 278.502L104.546 275.123C102.56 276.383 100.962 278.058 99.7635 280.12L103.222 282.13ZM106.689 278.502C108.004 277.668 109.733 277.188 111.993 277.188V273.188C109.168 273.188 106.648 273.791 104.546 275.123L106.689 278.502ZM111.993 277.188C114.158 277.188 115.787 277.663 117.008 278.477L119.227 275.148C117.198 273.796 114.744 273.188 111.993 273.188V277.188ZM117.028 278.489C118.413 279.39 119.524 280.583 120.371 282.1L123.864 280.15C122.711 278.084 121.156 276.402 119.207 275.136L117.028 278.489ZM120.371 282.1C121.272 283.714 121.958 285.514 122.419 287.512L126.316 286.613C125.777 284.278 124.963 282.12 123.864 280.15L120.371 282.1ZM122.419 287.512C122.896 289.581 123.214 291.668 123.373 293.776L127.362 293.474C127.188 291.165 126.839 288.877 126.316 286.613L122.419 287.512ZM123.373 293.778C123.537 295.903 123.618 297.851 123.618 299.625H127.618C127.618 297.732 127.532 295.68 127.362 293.472L123.373 293.778ZM123.618 299.625C123.618 301.442 123.537 303.433 123.373 305.599L127.362 305.901C127.532 303.651 127.618 301.558 127.618 299.625H123.618ZM123.373 305.599C123.215 307.694 122.879 309.77 122.365 311.827L126.245 312.798C126.814 310.522 127.187 308.223 127.362 305.901L123.373 305.599ZM122.356 311.863C121.898 313.849 121.197 315.638 120.263 317.245L123.722 319.255C124.871 317.278 125.712 315.11 126.254 312.762L122.356 311.863ZM120.246 317.275C119.399 318.792 118.288 319.985 116.903 320.886L119.082 324.239C121.031 322.973 122.586 321.291 123.739 319.225L120.246 317.275ZM116.903 320.886C115.635 321.71 113.955 322.188 111.743 322.188V326.188C114.53 326.188 117.017 325.582 119.082 324.239L116.903 320.886ZM111.68 320.625C114.718 320.625 117.129 319.253 118.658 316.633L115.202 314.617C114.398 315.997 113.309 316.625 111.68 316.625V320.625ZM118.65 316.646C119.596 315.052 120.226 313.159 120.589 311.023L116.646 310.352C116.343 312.133 115.847 313.532 115.21 314.604L118.65 316.646ZM120.583 311.056C120.974 308.974 121.234 306.871 121.364 304.747L117.371 304.503C117.251 306.462 117.011 308.401 116.652 310.319L120.583 311.056ZM121.364 304.747C121.49 302.68 121.555 300.887 121.555 299.375H117.555C117.555 300.78 117.495 302.487 117.371 304.503L121.364 304.747ZM121.555 299.375C121.555 298.285 121.512 296.954 121.427 295.392L117.433 295.608C117.515 297.129 117.555 298.382 117.555 299.375H121.555ZM121.429 295.446C121.385 293.817 121.232 292.113 120.971 290.335L117.014 290.915C117.253 292.554 117.391 294.1 117.431 295.554L121.429 295.446ZM120.971 290.335C120.701 288.489 120.248 286.738 119.607 285.088L115.878 286.537C116.403 287.887 116.784 289.344 117.014 290.915L120.971 290.335ZM119.624 285.133C118.991 283.383 118.058 281.884 116.781 280.713L114.079 283.662C114.802 284.325 115.41 285.242 115.861 286.492L119.624 285.133ZM116.814 280.744C115.398 279.387 113.611 278.75 111.618 278.75V282.75C112.707 282.75 113.462 283.072 114.046 283.631L116.814 280.744ZM111.618 278.75C109.676 278.75 107.928 279.36 106.548 280.68L109.312 283.57C109.849 283.057 110.559 282.75 111.618 282.75V278.75ZM106.581 280.648C105.37 281.754 104.444 283.161 103.768 284.801L107.467 286.324C107.958 285.131 108.574 284.246 109.279 283.602L106.581 280.648ZM103.749 284.848C103.151 286.414 102.721 288.097 102.452 289.891L106.408 290.484C106.639 288.945 107.001 287.545 107.486 286.277L103.749 284.848ZM102.453 289.883C102.194 291.567 102.02 293.194 101.933 294.764L105.927 294.986C106.006 293.556 106.166 292.058 106.407 290.492L102.453 289.883ZM101.931 294.819C101.889 296.33 101.868 297.6 101.868 298.625H105.868C105.868 297.65 105.888 296.42 105.929 294.931L101.931 294.819ZM101.868 298.625C101.868 300.159 101.91 302 101.994 304.141L105.991 303.984C105.908 301.875 105.868 300.091 105.868 298.625H101.868ZM101.996 304.182C102.125 306.333 102.362 308.463 102.706 310.572L106.654 309.928C106.332 307.954 106.11 305.959 105.989 303.943L101.996 304.182ZM102.713 310.611C103.112 312.785 103.704 314.693 104.527 316.291L108.083 314.459C107.489 313.307 106.998 311.799 106.647 309.889L102.713 310.611ZM104.53 316.297C105.233 317.651 106.198 318.762 107.458 319.524C108.716 320.285 110.15 320.625 111.68 320.625V316.625C110.751 316.625 110.06 316.423 109.527 316.101C108.995 315.779 108.502 315.265 108.08 314.453L104.53 316.297ZM149.027 322.625L148.119 324.407L148.133 324.414L148.147 324.421L149.027 322.625ZM143.84 317.375L145.591 316.409L145.586 316.4L145.581 316.391L143.84 317.375ZM142.465 314.375L140.553 314.963L140.567 315.008L140.583 315.052L142.465 314.375ZM147.215 308.688L145.688 309.979L145.714 310.01L145.741 310.039L147.215 308.688ZM149.027 313.375L147.092 313.88L147.095 313.891L147.098 313.901L149.027 313.375ZM150.152 316L148.438 317.029L150.152 316ZM152.34 318.062L151.356 319.804L151.4 319.829L151.446 319.851L152.34 318.062ZM161.715 316.438L163.265 317.702L163.273 317.692L163.281 317.682L161.715 316.438ZM162.465 306.375L160.783 307.457L160.796 307.477L160.81 307.498L162.465 306.375ZM159.465 303.438L158.356 305.102L158.375 305.115L158.395 305.127L159.465 303.438ZM150.777 299.125L149.883 300.914L149.913 300.929L149.942 300.942L150.777 299.125ZM146.652 296.562L145.403 298.124L145.419 298.137L145.436 298.15L146.652 296.562ZM143.59 292.875L141.801 293.769L141.816 293.8L141.832 293.829L143.59 292.875ZM144.152 280.875L145.846 281.939L145.852 281.93L145.857 281.921L144.152 280.875ZM148.715 276.688L149.609 278.476L149.617 278.473L149.625 278.469L148.715 276.688ZM161.59 276.562L160.771 278.387L160.786 278.394L160.802 278.401L161.59 276.562ZM166.652 280.438L165.076 281.668L165.093 281.689L165.11 281.71L166.652 280.438ZM163.465 288.625L161.852 289.808L161.897 289.869L161.946 289.927L163.465 288.625ZM162.277 286.375L160.372 286.981L160.389 287.035L160.409 287.087L162.277 286.375ZM161.152 283.688L159.347 284.547L159.363 284.582L159.381 284.616L161.152 283.688ZM159.152 281.5L158.026 283.152L158.052 283.17L158.079 283.187L159.152 281.5ZM150.09 282.188L148.755 280.698L148.742 280.71L148.729 280.722L150.09 282.188ZM149.465 290.875L147.865 292.075L147.893 292.113L147.923 292.149L149.465 290.875ZM152.527 293.438L151.499 295.152L151.532 295.172L151.566 295.191L152.527 293.438ZM156.715 295.5L155.903 297.328L155.933 297.341L155.964 297.353L156.715 295.5ZM161.277 297.625L160.344 299.394L160.373 299.409L160.403 299.423L161.277 297.625ZM165.465 300.438L164.127 301.924L164.153 301.947L164.18 301.97L165.465 300.438ZM168.527 304.5L166.712 305.338L166.72 305.357L166.73 305.376L168.527 304.5ZM166.09 320.5L164.652 319.11L164.652 319.11L166.09 320.5ZM156.215 322.188C153.815 322.188 151.726 321.72 149.908 320.829L148.147 324.421C150.579 325.613 153.282 326.188 156.215 326.188V322.188ZM149.936 320.843C148.22 319.969 146.763 318.532 145.591 316.409L142.089 318.341C143.584 321.051 145.585 323.115 148.119 324.407L149.936 320.843ZM145.581 316.391C145.095 315.531 144.684 314.634 144.347 313.698L140.583 315.052C140.996 316.2 141.501 317.302 142.099 318.359L145.581 316.391ZM144.377 313.787C144.101 312.893 143.965 311.987 143.965 311.062H139.965C139.965 312.388 140.162 313.691 140.553 314.963L144.377 313.787ZM143.965 311.062C143.965 310.298 144.152 310.095 144.174 310.072C144.189 310.057 144.367 309.875 145.09 309.875V305.875C143.73 305.875 142.345 306.225 141.318 307.272C140.299 308.312 139.965 309.702 139.965 311.062H143.965ZM145.09 309.875C145.387 309.875 145.551 309.918 145.626 309.946C145.661 309.96 145.677 309.97 145.681 309.973C145.685 309.976 145.686 309.977 145.688 309.979L148.742 307.396C147.782 306.262 146.419 305.875 145.09 305.875V309.875ZM145.741 310.039C145.946 310.263 146.175 310.639 146.362 311.262L150.193 310.113C149.88 309.07 149.401 308.112 148.689 307.336L145.741 310.039ZM146.362 311.262C146.604 312.069 146.848 312.942 147.092 313.88L150.963 312.87C150.707 311.892 150.451 310.972 150.193 310.113L146.362 311.262ZM147.098 313.901C147.397 314.999 147.845 316.042 148.438 317.029L151.867 314.971C151.46 314.291 151.158 313.585 150.957 312.849L147.098 313.901ZM148.438 317.029C149.138 318.197 150.137 319.115 151.356 319.804L153.324 316.321C152.626 315.927 152.167 315.47 151.867 314.971L148.438 317.029ZM151.446 319.851C152.826 320.542 154.503 320.812 156.34 320.812V316.812C154.844 316.812 153.854 316.583 153.234 316.274L151.446 319.851ZM156.34 320.812C159.15 320.812 161.544 319.811 163.265 317.702L160.165 315.173C159.303 316.231 158.113 316.812 156.34 316.812V320.812ZM163.281 317.682C164.867 315.687 165.652 313.347 165.652 310.75H161.652C161.652 312.486 161.147 313.938 160.149 315.193L163.281 317.682ZM165.652 310.75C165.652 308.697 165.185 306.822 164.12 305.252L160.81 307.498C161.328 308.261 161.652 309.303 161.652 310.75H165.652ZM164.147 305.293C163.23 303.866 162.014 302.685 160.535 301.748L158.395 305.127C159.416 305.774 160.2 306.551 160.783 307.457L164.147 305.293ZM160.574 301.773C159.222 300.872 157.746 300.068 156.152 299.36L154.528 303.015C155.934 303.64 157.208 304.337 158.356 305.102L160.574 301.773ZM156.152 299.36C154.66 298.697 153.147 298.013 151.612 297.308L149.942 300.942C151.491 301.654 153.02 302.345 154.528 303.015L156.152 299.36ZM151.672 297.336C150.278 296.639 149.012 295.852 147.869 294.975L145.436 298.15C146.793 299.19 148.277 300.111 149.883 300.914L151.672 297.336ZM147.902 295.001C146.868 294.173 146.017 293.154 145.348 291.921L141.832 293.829C142.746 295.513 143.937 296.952 145.403 298.124L147.902 295.001ZM145.379 291.981C144.802 290.827 144.465 289.319 144.465 287.375H140.465C140.465 289.765 140.878 291.923 141.801 293.769L145.379 291.981ZM144.465 287.375C144.465 285.133 144.958 283.352 145.846 281.939L142.459 279.811C141.097 281.981 140.465 284.533 140.465 287.375H144.465ZM145.857 281.921C146.788 280.405 148.028 279.267 149.609 278.476L147.821 274.899C145.568 276.025 143.767 277.678 142.448 279.829L145.857 281.921ZM149.625 278.469C151.274 277.626 153.145 277.188 155.277 277.188V273.188C152.576 273.188 150.072 273.749 147.805 274.906L149.625 278.469ZM155.277 277.188C157.152 277.188 158.978 277.582 160.771 278.387L162.409 274.738C160.119 273.71 157.736 273.188 155.277 273.188V277.188ZM160.802 278.401C162.542 279.146 163.955 280.232 165.076 281.668L168.229 279.207C166.683 277.226 164.721 275.729 162.378 274.724L160.802 278.401ZM165.11 281.71C166.159 282.982 166.715 284.54 166.715 286.5H170.715C170.715 283.71 169.896 281.226 168.195 279.165L165.11 281.71ZM166.715 286.5C166.715 286.839 166.672 287.055 166.63 287.18C166.592 287.296 166.556 287.33 166.551 287.336C166.545 287.341 166.511 287.377 166.395 287.415C166.27 287.457 166.054 287.5 165.715 287.5V291.5C167.023 291.5 168.372 291.172 169.379 290.164C170.387 289.157 170.715 287.808 170.715 286.5H166.715ZM165.715 287.5C165.111 287.5 164.996 287.338 164.984 287.323L161.946 289.927C162.934 291.078 164.319 291.5 165.715 291.5V287.5ZM165.078 287.442C164.745 286.988 164.429 286.404 164.146 285.663L160.409 287.087C160.793 288.096 161.268 289.012 161.852 289.808L165.078 287.442ZM164.183 285.769C163.855 284.738 163.435 283.735 162.924 282.759L159.381 284.616C159.787 285.39 160.116 286.179 160.372 286.981L164.183 285.769ZM162.958 282.828C162.361 281.574 161.42 280.572 160.226 279.813L158.079 283.187C158.718 283.594 159.111 284.051 159.347 284.547L162.958 282.828ZM160.279 279.848C158.896 278.904 157.123 278.562 155.215 278.562V282.562C156.723 282.562 157.576 282.846 158.026 283.152L160.279 279.848ZM155.215 278.562C152.693 278.562 150.445 279.183 148.755 280.698L151.425 283.677C152.152 283.025 153.32 282.562 155.215 282.562V278.562ZM148.729 280.722C147.01 282.318 146.34 284.617 146.34 287.188H150.34C150.34 285.258 150.837 284.223 151.451 283.653L148.729 280.722ZM146.34 287.188C146.34 289.004 146.814 290.673 147.865 292.075L151.065 289.675C150.616 289.077 150.34 288.288 150.34 287.188H146.34ZM147.923 292.149C148.882 293.31 150.087 294.305 151.499 295.152L153.556 291.723C152.468 291.07 151.631 290.357 151.007 289.601L147.923 292.149ZM151.566 295.191C152.911 295.929 154.358 296.641 155.903 297.328L157.527 293.672C156.072 293.026 154.727 292.363 153.489 291.684L151.566 295.191ZM155.964 297.353C157.442 297.953 158.902 298.633 160.344 299.394L162.211 295.856C160.653 295.034 159.071 294.297 157.466 293.647L155.964 297.353ZM160.403 299.423C161.779 300.093 163.019 300.927 164.127 301.924L166.803 298.951C165.411 297.698 163.859 296.657 162.152 295.827L160.403 299.423ZM164.18 301.97C165.232 302.852 166.077 303.964 166.712 305.338L170.343 303.662C169.478 301.786 168.282 300.19 166.75 298.905L164.18 301.97ZM166.73 305.376C167.353 306.656 167.715 308.337 167.715 310.5H171.715C171.715 307.913 171.285 305.594 170.325 303.624L166.73 305.376ZM167.715 310.5C167.715 314.258 166.639 317.055 164.652 319.11L167.528 321.89C170.375 318.945 171.715 315.076 171.715 310.5H167.715ZM164.652 319.11C162.737 321.092 160.015 322.188 156.215 322.188V326.188C160.832 326.188 164.693 324.825 167.528 321.89L164.652 319.11ZM197.5 323.125L195.752 324.096L195.784 324.155L195.821 324.212L197.5 323.125ZM202.375 276.25L200.651 277.264L200.673 277.301L200.696 277.337L202.375 276.25ZM202.375 323.125L204.054 324.212L204.068 324.19L204.082 324.168L202.375 323.125ZM199.938 322.188C199.546 322.188 199.34 322.127 199.252 322.088C199.187 322.06 199.184 322.045 199.179 322.038L195.821 324.212C196.78 325.694 198.378 326.188 199.938 326.188V322.188ZM199.248 322.154C199.029 321.758 198.875 321.212 198.875 320.438H194.875C194.875 321.747 195.138 322.992 195.752 324.096L199.248 322.154ZM198.875 320.438V278.938H194.875V320.438H198.875ZM198.875 278.938C198.875 278.131 199.045 277.641 199.242 277.337L195.883 275.163C195.164 276.276 194.875 277.577 194.875 278.938H198.875ZM199.242 277.337C199.246 277.33 199.25 277.315 199.315 277.287C199.403 277.248 199.609 277.188 200 277.188V273.188C198.44 273.188 196.842 273.681 195.883 275.163L199.242 277.337ZM200 277.188C200.394 277.188 200.586 277.249 200.652 277.279C200.681 277.292 200.683 277.297 200.672 277.287C200.667 277.283 200.662 277.278 200.657 277.272C200.653 277.267 200.651 277.264 200.651 277.264L204.099 275.236C203.182 273.678 201.546 273.188 200 273.188V277.188ZM200.696 277.337C200.893 277.641 201.062 278.131 201.062 278.938H205.062C205.062 277.577 204.774 276.276 204.054 275.163L200.696 277.337ZM201.062 278.938V320.438H205.062V278.938H201.062ZM201.062 320.438C201.062 321.18 200.902 321.7 200.668 322.082L204.082 324.168C204.765 323.05 205.062 321.778 205.062 320.438H201.062ZM200.696 322.038C200.691 322.045 200.688 322.06 200.623 322.088C200.535 322.127 200.329 322.188 199.938 322.188V326.188C201.497 326.188 203.095 325.694 204.054 324.212L200.696 322.038ZM231.473 276.5L233.187 277.529L233.198 277.511L233.209 277.492L231.473 276.5ZM236.535 276.188L235.03 277.505L235.051 277.529L235.073 277.552L236.535 276.188ZM237.848 278.312L235.971 279.004L235.983 279.037L235.996 279.07L237.848 278.312ZM251.91 312.688L250.059 313.445L253.91 312.688H251.91ZM252.535 276.25L254.231 277.31L254.245 277.287L254.259 277.264L252.535 276.25ZM256.973 276.25L255.249 277.264L255.262 277.287L255.277 277.31L256.973 276.25ZM251.66 323.188L250.155 324.505L250.177 324.53L250.201 324.555L251.66 323.188ZM250.285 321L248.433 321.754L248.437 321.765L248.442 321.776L250.285 321ZM236.41 286.938L238.262 286.183L234.41 286.938H236.41ZM235.785 323.25L237.449 324.359L237.465 324.335L237.481 324.31L235.785 323.25ZM233.535 322.188C233.219 322.188 233.076 322.136 233.038 322.119C233.022 322.111 233.024 322.11 233.034 322.118C233.044 322.127 233.047 322.133 233.044 322.128L229.652 324.247C230.55 325.685 232.056 326.188 233.535 326.188V322.188ZM233.044 322.128C232.865 321.842 232.723 321.416 232.723 320.75H228.723C228.723 322.001 228.997 323.2 229.652 324.247L233.044 322.128ZM232.723 320.75V279.562H228.723V320.75H232.723ZM232.723 279.562C232.723 278.629 232.914 277.984 233.187 277.529L229.758 275.471C229.031 276.683 228.723 278.079 228.723 279.562H232.723ZM233.209 277.492C233.255 277.411 233.303 277.365 233.396 277.321C233.515 277.264 233.765 277.188 234.223 277.188V273.188C232.437 273.188 230.707 273.809 229.736 275.508L233.209 277.492ZM234.223 277.188C234.657 277.188 234.86 277.31 235.03 277.505L238.04 274.87C237.043 273.731 235.704 273.188 234.223 273.188V277.188ZM235.073 277.552C235.477 277.985 235.772 278.465 235.971 279.004L239.724 277.621C239.339 276.576 238.76 275.64 237.997 274.823L235.073 277.552ZM235.996 279.07L250.059 313.445L253.761 311.93L239.699 277.555L235.996 279.07ZM253.91 312.688V278.688H249.91V312.688H253.91ZM253.91 278.688C253.91 278.022 254.053 277.596 254.231 277.31L250.839 275.19C250.184 276.238 249.91 277.437 249.91 278.688H253.91ZM254.259 277.264C254.269 277.246 254.273 277.245 254.266 277.252C254.259 277.258 254.257 277.258 254.268 277.252C254.294 277.239 254.421 277.188 254.723 277.188V273.188C253.191 273.188 251.686 273.749 250.811 275.236L254.259 277.264ZM254.723 277.188C255.056 277.188 255.204 277.243 255.243 277.262C255.261 277.27 255.259 277.272 255.251 277.264C255.242 277.256 255.242 277.253 255.249 277.264L258.696 275.236C257.807 273.724 256.258 273.188 254.723 273.188V277.188ZM255.277 277.31C255.455 277.596 255.598 278.022 255.598 278.688H259.598C259.598 277.437 259.323 276.238 258.669 275.19L255.277 277.31ZM255.598 278.688V319.75H259.598V278.688H255.598ZM255.598 319.75C255.598 320.68 255.407 321.365 255.111 321.883L258.584 323.867C259.288 322.635 259.598 321.237 259.598 319.75H255.598ZM255.111 321.883C255.072 321.951 255.028 321.998 254.924 322.047C254.792 322.109 254.522 322.188 254.035 322.188V326.188C255.832 326.188 257.602 325.586 258.584 323.867L255.111 321.883ZM254.035 322.188C253.599 322.188 253.346 322.061 253.119 321.82L250.201 324.555C251.224 325.647 252.554 326.188 254.035 326.188V322.188ZM253.165 321.87C252.718 321.36 252.376 320.812 252.128 320.224L248.442 321.776C248.861 322.771 249.435 323.682 250.155 324.505L253.165 321.87ZM252.137 320.246L238.262 286.183L234.558 287.692L248.433 321.754L252.137 320.246ZM234.41 286.938V320.75H238.41V286.938H234.41ZM234.41 320.75C234.41 321.476 234.26 321.917 234.089 322.19L237.481 324.31C238.144 323.25 238.41 322.024 238.41 320.75H234.41ZM234.121 322.141C234.13 322.127 234.143 322.112 234.157 322.101C234.17 322.091 234.169 322.095 234.141 322.107C234.076 322.134 233.896 322.188 233.535 322.188V326.188C234.969 326.188 236.514 325.762 237.449 324.359L234.121 322.141ZM285.883 323.188L284.134 324.159L284.167 324.218L284.203 324.274L285.883 323.188ZM285.258 281.625H287.258V279.625H285.258V281.625ZM274.695 281L273.403 282.527L273.466 282.58L273.533 282.627L274.695 281ZM274.695 276.75L275.914 278.335L275.923 278.329L275.931 278.323L274.695 276.75ZM301.883 276.75L300.591 278.277L300.653 278.33L300.72 278.377L301.883 276.75ZM291.383 281.625V279.625H289.383V281.625H291.383ZM290.695 323.188L288.988 322.145L288.98 322.159L288.971 322.173L290.695 323.188ZM288.32 322.25C287.929 322.25 287.723 322.189 287.635 322.151C287.57 322.123 287.566 322.108 287.562 322.101L284.203 324.274C285.162 325.756 286.76 326.25 288.32 326.25V322.25ZM287.631 322.216C287.411 321.821 287.258 321.274 287.258 320.5H283.258C283.258 321.809 283.521 323.054 284.134 324.159L287.631 322.216ZM287.258 320.5V281.625H283.258V320.5H287.258ZM285.258 279.625H276.945V283.625H285.258V279.625ZM276.945 279.625C276.329 279.625 276.018 279.487 275.857 279.373L273.533 282.627C274.539 283.346 275.728 283.625 276.945 283.625V279.625ZM275.987 279.473C276.003 279.487 275.988 279.487 275.96 279.413C275.928 279.325 275.883 279.139 275.883 278.812H271.883C271.883 280.15 272.251 281.552 273.403 282.527L275.987 279.473ZM275.883 278.812C275.883 278.513 275.926 278.364 275.946 278.311C275.96 278.276 275.954 278.305 275.914 278.335L273.476 275.165C272.264 276.097 271.883 277.498 271.883 278.812H275.883ZM275.931 278.323C276.085 278.201 276.368 278.062 276.945 278.062V274.062C275.688 274.062 274.472 274.382 273.459 275.177L275.931 278.323ZM276.945 278.062H299.633V274.062H276.945V278.062ZM299.633 278.062C300.284 278.062 300.52 278.217 300.591 278.277L303.174 275.223C302.162 274.367 300.897 274.062 299.633 274.062V278.062ZM300.72 278.377C300.709 278.37 300.697 278.358 300.687 278.345C300.677 278.333 300.68 278.333 300.689 278.355C300.71 278.406 300.758 278.56 300.758 278.875H304.758C304.758 277.504 304.343 276.05 303.045 275.123L300.72 278.377ZM300.758 278.875C300.758 279.19 300.71 279.344 300.689 279.395C300.68 279.417 300.677 279.417 300.687 279.405C300.697 279.392 300.709 279.38 300.72 279.373L303.045 282.627C304.343 281.7 304.758 280.246 304.758 278.875H300.758ZM300.72 279.373C300.56 279.487 300.249 279.625 299.633 279.625V283.625C300.85 283.625 302.039 283.346 303.045 282.627L300.72 279.373ZM299.633 279.625H291.383V283.625H299.633V279.625ZM289.383 281.625V320.5H293.383V281.625H289.383ZM289.383 320.5C289.383 321.242 289.222 321.763 288.988 322.145L292.402 324.23C293.085 323.112 293.383 321.841 293.383 320.5H289.383ZM288.971 322.173C288.971 322.174 288.973 322.17 288.977 322.165C288.982 322.16 288.987 322.155 288.992 322.15C289.003 322.141 289.001 322.146 288.972 322.159C288.906 322.188 288.714 322.25 288.32 322.25V326.25C289.866 326.25 291.502 325.76 292.419 324.202L288.971 322.173Z" fill="black" mask="url(#path-1-outside-1_209_28)"/>
<path d="M300.855 128.722C300.855 107.183 294.468 86.1278 282.502 68.2192C270.536 50.3106 253.529 36.3524 233.629 28.1101C213.73 19.8676 191.833 17.7112 170.709 21.9133C149.584 26.1152 130.18 36.4873 114.95 51.7173C99.7202 66.9474 89.3482 86.351 85.1461 107.476C80.9442 128.601 83.1012 150.497 91.3436 170.396C99.586 190.295 113.544 207.303 131.453 219.269C149.361 231.235 170.416 237.622 191.954 237.622" stroke="black" stroke-width="15" stroke-linecap="round" stroke-linejoin="round"/>
<path d="M83.0537 128.721H300.855" stroke="black" stroke-width="15" stroke-linecap="round" stroke-linejoin="round"/>
<path d="M191.954 237.622C170.936 237.622 153.839 188.835 153.839 128.722C153.839 68.6081 170.936 19.8207 191.954 19.8207C212.972 19.8207 230.069 68.6081 230.069 128.722" stroke="black" stroke-width="15" stroke-linecap="round" stroke-linejoin="round"/>
<path d="M261.313 236.206C282.364 236.206 299.429 219.142 299.429 198.091C299.429 177.041 282.364 159.976 261.313 159.976C240.263 159.976 223.198 177.041 223.198 198.091C223.198 219.142 240.263 236.206 261.313 236.206Z" stroke="black" stroke-width="15" stroke-linecap="round" stroke-linejoin="round"/>
<path d="M311.742 248.513L288.22 225.1" stroke="black" stroke-width="15" stroke-linecap="round" stroke-linejoin="round"/>
</svg>
