<svg width="191" height="178" viewBox="0 0 191 178" fill="none" xmlns="http://www.w3.org/2000/svg">
<path d="M31.5625 175.188C29.0625 175.188 26.9583 174.667 25.25 173.625C23.5833 172.542 22.2292 171.125 21.1875 169.375C20.1875 167.583 19.4167 165.625 18.875 163.5C18.375 161.333 18.0417 159.146 17.875 156.938C17.7083 154.729 17.625 152.688 17.625 150.812C17.625 148.896 17.7083 146.833 17.875 144.625C18.0833 142.375 18.4375 140.167 18.9375 138C19.4792 135.833 20.2708 133.875 21.3125 132.125C22.3542 130.333 23.7292 128.896 25.4375 127.812C27.1458 126.729 29.2708 126.188 31.8125 126.188C34.2708 126.188 36.3125 126.729 37.9375 127.812C39.6042 128.896 40.9375 130.333 41.9375 132.125C42.9375 133.917 43.6875 135.896 44.1875 138.062C44.6875 140.229 45.0208 142.417 45.1875 144.625C45.3542 146.792 45.4375 148.792 45.4375 150.625C45.4375 152.5 45.3542 154.542 45.1875 156.75C45.0208 158.958 44.6667 161.146 44.125 163.312C43.625 165.479 42.8542 167.458 41.8125 169.25C40.8125 171.042 39.4792 172.479 37.8125 173.562C36.1458 174.646 34.0625 175.188 31.5625 175.188ZM31.5 169.625C33.8333 169.625 35.5833 168.625 36.75 166.625C37.5417 165.292 38.1042 163.646 38.4375 161.688C38.8125 159.688 39.0625 157.667 39.1875 155.625C39.3125 153.583 39.375 151.833 39.375 150.375C39.375 149.333 39.3333 148.042 39.25 146.5C39.2083 144.958 39.0625 143.333 38.8125 141.625C38.5625 139.917 38.1458 138.312 37.5625 136.812C37.0208 135.312 36.25 134.104 35.25 133.188C34.25 132.229 32.9792 131.75 31.4375 131.75C29.9375 131.75 28.7083 132.208 27.75 133.125C26.7917 134 26.0208 135.146 25.4375 136.562C24.8958 137.979 24.5 139.521 24.25 141.188C24 142.812 23.8333 144.375 23.75 145.875C23.7083 147.375 23.6875 148.625 23.6875 149.625C23.6875 151.125 23.7292 152.938 23.8125 155.062C23.9375 157.146 24.1667 159.208 24.5 161.25C24.875 163.292 25.4167 165 26.125 166.375C27.25 168.542 29.0417 169.625 31.5 169.625ZM63.875 175.188C61.2083 175.188 58.8125 174.667 56.6875 173.625C54.5625 172.542 52.8333 170.792 51.5 168.375C50.9583 167.417 50.5 166.417 50.125 165.375C49.7917 164.292 49.625 163.188 49.625 162.062C49.625 159.938 50.6667 158.875 52.75 158.875C53.7083 158.875 54.4167 159.146 54.875 159.688C55.3333 160.188 55.6875 160.854 55.9375 161.688C56.1875 162.521 56.4375 163.417 56.6875 164.375C56.9375 165.292 57.3125 166.167 57.8125 167C58.3125 167.833 59.0417 168.521 60 169.062C61 169.562 62.3333 169.812 64 169.812C66.2917 169.812 68.0833 169.021 69.375 167.438C70.6667 165.812 71.3125 163.917 71.3125 161.75C71.3125 160 70.9167 158.542 70.125 157.375C69.375 156.208 68.375 155.229 67.125 154.438C65.875 153.604 64.5 152.854 63 152.188C61.5 151.521 59.9792 150.833 58.4375 150.125C56.9375 149.375 55.5625 148.521 54.3125 147.562C53.0625 146.562 52.0417 145.333 51.25 143.875C50.5 142.375 50.125 140.542 50.125 138.375C50.125 135.833 50.6875 133.667 51.8125 131.875C52.9375 130.042 54.4583 128.646 56.375 127.688C58.3333 126.688 60.5208 126.188 62.9375 126.188C65.1042 126.188 67.2083 126.646 69.25 127.562C71.2917 128.438 72.9792 129.729 74.3125 131.438C75.6875 133.104 76.375 135.125 76.375 137.5C76.375 139.5 75.375 140.5 73.375 140.5C72.375 140.5 71.625 140.208 71.125 139.625C70.6667 139 70.2708 138.25 69.9375 137.375C69.6458 136.458 69.2708 135.562 68.8125 134.688C68.3958 133.812 67.7292 133.083 66.8125 132.5C65.8958 131.875 64.5833 131.562 62.875 131.562C60.6667 131.562 58.9583 132.104 57.75 133.188C56.5833 134.271 56 135.938 56 138.188C56 139.646 56.375 140.875 57.125 141.875C57.9167 142.833 58.9375 143.688 60.1875 144.438C61.4792 145.146 62.875 145.833 64.375 146.5C65.9167 147.125 67.4375 147.833 68.9375 148.625C70.4792 149.375 71.875 150.312 73.125 151.438C74.4167 152.521 75.4375 153.875 76.1875 155.5C76.9792 157.125 77.375 159.125 77.375 161.5C77.375 165.667 76.1667 169 73.75 171.5C71.375 173.958 68.0833 175.188 63.875 175.188ZM95.4375 175.188C94.2708 175.188 93.4583 174.833 93 174.125C92.5833 173.375 92.375 172.479 92.375 171.438V129.938C92.375 128.854 92.6042 127.958 93.0625 127.25C93.5208 126.542 94.3333 126.188 95.5 126.188C96.6667 126.188 97.4583 126.542 97.875 127.25C98.3333 127.958 98.5625 128.854 98.5625 129.938V171.438C98.5625 172.479 98.3333 173.375 97.875 174.125C97.4167 174.833 96.6042 175.188 95.4375 175.188ZM116.875 175.188C115.833 175.188 115.104 174.854 114.688 174.188C114.271 173.521 114.062 172.708 114.062 171.75V130.562C114.062 129.354 114.312 128.333 114.812 127.5C115.312 126.625 116.229 126.188 117.562 126.188C118.521 126.188 119.292 126.521 119.875 127.188C120.458 127.812 120.896 128.521 121.188 129.312L135.25 163.688V129.688C135.25 128.729 135.458 127.917 135.875 127.25C136.292 126.542 137.021 126.188 138.062 126.188C139.146 126.188 139.896 126.542 140.312 127.25C140.729 127.917 140.938 128.729 140.938 129.688V170.75C140.938 171.958 140.688 173 140.188 173.875C139.688 174.75 138.75 175.188 137.375 175.188C136.417 175.188 135.625 174.854 135 174.188C134.417 173.521 133.958 172.792 133.625 172L119.75 137.938V171.75C119.75 172.75 119.542 173.583 119.125 174.25C118.708 174.875 117.958 175.188 116.875 175.188ZM159.5 175.25C158.333 175.25 157.521 174.896 157.062 174.188C156.646 173.438 156.438 172.542 156.438 171.5V132.625H148.125C147.208 132.625 146.458 132.417 145.875 132C145.333 131.542 145.062 130.812 145.062 129.812C145.062 128.854 145.333 128.167 145.875 127.75C146.458 127.292 147.208 127.062 148.125 127.062H170.812C171.771 127.062 172.521 127.292 173.062 127.75C173.646 128.167 173.938 128.875 173.938 129.875C173.938 130.875 173.646 131.583 173.062 132C172.479 132.417 171.729 132.625 170.812 132.625H162.562V171.5C162.562 172.542 162.333 173.438 161.875 174.188C161.458 174.896 160.667 175.25 159.5 175.25Z" fill="black"/>
<path d="M147 61.4645C147 51.1799 143.95 41.126 138.236 32.5747C132.523 24.0233 124.402 17.3583 114.9 13.4226C105.398 9.48678 94.9423 8.45713 84.8553 10.4636C74.7682 12.47 65.5029 17.4227 58.2306 24.695C50.9582 31.9674 46.0056 41.2326 43.9991 51.3196C41.9927 61.4068 43.0227 71.8625 46.9584 81.3639C50.8942 90.8659 57.5592 98.9872 66.1106 104.701C74.6619 110.415 84.7154 113.465 95 113.465" stroke="black" stroke-width="5" stroke-linecap="round" stroke-linejoin="round"/>
<path d="M43 61.4645H147" stroke="black" stroke-width="5" stroke-linecap="round" stroke-linejoin="round"/>
<path d="M94.9998 113.465C84.9638 113.465 76.7998 90.1685 76.7998 61.4645C76.7998 32.7604 84.9638 9.46436 94.9998 9.46436C105.036 9.46436 113.2 32.7604 113.2 61.4645" stroke="black" stroke-width="5" stroke-linecap="round" stroke-linejoin="round"/>
<path d="M128.119 112.789C138.171 112.789 146.319 104.64 146.319 94.5886C146.319 84.537 138.171 76.3885 128.119 76.3885C118.067 76.3885 109.919 84.537 109.919 94.5886C109.919 104.64 118.067 112.789 128.119 112.789Z" stroke="black" stroke-width="5" stroke-linecap="round" stroke-linejoin="round"/>
<path d="M152.199 118.665L140.967 107.485" stroke="black" stroke-width="5" stroke-linecap="round" stroke-linejoin="round"/>
</svg>
