<svg width="798" height="747" viewBox="0 0 798 747" fill="none" xmlns="http://www.w3.org/2000/svg">
<mask id="path-1-inside-1_206_5" fill="white">
<path fill-rule="evenodd" clip-rule="evenodd" d="M532 30C532 13.4315 518.569 0 502 0H30C13.4315 0 0 13.4315 0 30V468C0 484.569 13.4315 498 30 498H236C252.569 498 266 511.431 266 528V717C266 733.569 279.431 747 296 747H768C784.569 747 798 733.569 798 717V279C798 262.431 784.569 249 768 249H562C545.431 249 532 235.569 532 219V30Z"/>
</mask>
<path d="M30 50H502V-50H30V50ZM50 468V30H-50V468H50ZM236 448H30V548H236V448ZM316 717V528H216V717H316ZM768 697H296V797H768V697ZM748 279V717H848V279H748ZM562 299H768V199H562V299ZM482 30V219H582V30H482ZM562 199C573.046 199 582 207.954 582 219H482C482 263.183 517.817 299 562 299V199ZM848 279C848 234.817 812.183 199 768 199V299C756.954 299 748 290.046 748 279H848ZM768 797C812.183 797 848 761.183 848 717H748C748 705.954 756.954 697 768 697V797ZM216 717C216 761.183 251.817 797 296 797V697C307.046 697 316 705.954 316 717H216ZM236 548C224.954 548 216 539.046 216 528H316C316 483.817 280.183 448 236 448V548ZM-50 468C-50 512.183 -14.1828 548 30 548V448C41.0457 448 50 456.954 50 468H-50ZM502 50C490.954 50 482 41.0457 482 30H582C582 -14.1828 546.183 -50 502 -50V50ZM30 -50C-14.1828 -50 -50 -14.1827 -50 30H50C50 41.0457 41.0457 50 30 50V-50Z" fill="black" mask="url(#path-1-inside-1_206_5)"/>
<mask id="path-3-outside-2_206_5" maskUnits="userSpaceOnUse" x="434" y="353" width="235" height="326" fill="black">
<rect fill="white" x="434" y="353" width="235" height="326"/>
<path d="M461.55 363.45H539.85C569.85 363.45 593.85 369.9 611.85 382.8C629.85 395.7 638.85 415.5 638.85 442.2C638.85 457.8 634.8 471.45 626.7 483.15C618.6 494.55 607.95 502.35 594.75 506.55C611.85 509.55 626.7 516.6 639.3 527.7C651.9 538.8 658.2 555.6 658.2 578.1C658.2 608.7 647.85 631.5 627.15 646.5C606.75 661.5 580.2 669 547.5 669H461.55C450.15 669 444.45 663.45 444.45 652.35V381C444.45 369.3 450.15 363.45 461.55 363.45ZM483.15 397.2V494.85H543C562.8 494.85 577.35 490.8 586.65 482.7C596.25 474.6 601.05 462.15 601.05 445.35C601.05 413.25 580.65 397.2 539.85 397.2H483.15ZM483.15 525.45V635.25H547.5C595.8 635.25 619.95 616.2 619.95 578.1C619.95 543 597 525.45 551.1 525.45H483.15Z"/>
</mask>
<path d="M461.55 363.45H539.85C569.85 363.45 593.85 369.9 611.85 382.8C629.85 395.7 638.85 415.5 638.85 442.2C638.85 457.8 634.8 471.45 626.7 483.15C618.6 494.55 607.95 502.35 594.75 506.55C611.85 509.55 626.7 516.6 639.3 527.7C651.9 538.8 658.2 555.6 658.2 578.1C658.2 608.7 647.85 631.5 627.15 646.5C606.75 661.5 580.2 669 547.5 669H461.55C450.15 669 444.45 663.45 444.45 652.35V381C444.45 369.3 450.15 363.45 461.55 363.45ZM483.15 397.2V494.85H543C562.8 494.85 577.35 490.8 586.65 482.7C596.25 474.6 601.05 462.15 601.05 445.35C601.05 413.25 580.65 397.2 539.85 397.2H483.15ZM483.15 525.45V635.25H547.5C595.8 635.25 619.95 616.2 619.95 578.1C619.95 543 597 525.45 551.1 525.45H483.15Z" fill="black"/>
<path d="M611.85 382.8L606.025 390.928L606.025 390.928L611.85 382.8ZM626.7 483.15L634.852 488.942L634.887 488.892L634.922 488.842L626.7 483.15ZM594.75 506.55L591.718 497.021L593.022 516.4L594.75 506.55ZM639.3 527.7L645.91 520.196L645.91 520.196L639.3 527.7ZM627.15 646.5L621.282 638.403L621.254 638.423L621.226 638.443L627.15 646.5ZM483.15 397.2V387.2H473.15V397.2H483.15ZM483.15 494.85H473.15V504.85H483.15V494.85ZM586.65 482.7L580.201 475.057L580.141 475.108L580.082 475.159L586.65 482.7ZM483.15 525.45V515.45H473.15V525.45H483.15ZM483.15 635.25H473.15V645.25H483.15V635.25ZM461.55 373.45H539.85V353.45H461.55V373.45ZM539.85 373.45C568.488 373.45 590.232 379.61 606.025 390.928L617.675 374.672C597.468 360.19 571.212 353.45 539.85 353.45V373.45ZM606.025 390.928C620.849 401.552 628.85 417.973 628.85 442.2H648.85C648.85 413.027 638.851 389.848 617.675 374.672L606.025 390.928ZM628.85 442.2C628.85 455.971 625.309 467.591 618.478 477.458L634.922 488.842C644.291 475.309 648.85 459.629 648.85 442.2H628.85ZM618.548 477.358C611.691 487.008 602.83 493.485 591.718 497.021L597.782 516.079C613.07 511.215 625.509 502.092 634.852 488.942L618.548 477.358ZM593.022 516.4C608.374 519.093 621.519 525.362 632.69 535.204L645.91 520.196C631.881 507.838 615.326 500.007 596.478 496.7L593.022 516.4ZM632.69 535.204C642.468 543.818 648.2 557.444 648.2 578.1H668.2C668.2 553.756 661.332 533.782 645.91 520.196L632.69 535.204ZM648.2 578.1C648.2 606.21 638.857 625.667 621.282 638.403L633.018 654.597C656.843 637.333 668.2 611.19 668.2 578.1H648.2ZM621.226 638.443C602.985 651.856 578.691 659 547.5 659V679C581.709 679 610.516 671.144 633.074 654.557L621.226 638.443ZM547.5 659H461.55V679H547.5V659ZM461.55 659C457.326 659 456.006 657.97 455.701 657.673C455.445 657.424 454.45 656.29 454.45 652.35H434.45C434.45 659.51 436.305 666.701 441.749 672.002C447.144 677.255 454.374 679 461.55 679V659ZM454.45 652.35V381H434.45V652.35H454.45ZM454.45 381C454.45 376.627 455.517 375.196 455.887 374.816C456.211 374.484 457.458 373.45 461.55 373.45V353.45C454.242 353.45 446.939 355.341 441.563 360.859C436.233 366.329 434.45 373.673 434.45 381H454.45ZM473.15 397.2V494.85H493.15V397.2H473.15ZM483.15 504.85H543V484.85H483.15V504.85ZM543 504.85C563.837 504.85 581.274 500.643 593.218 490.241L580.082 475.159C573.426 480.957 561.763 484.85 543 484.85V504.85ZM593.099 490.343C605.649 479.754 611.05 464.041 611.05 445.35H591.05C591.05 460.259 586.851 469.446 580.201 475.057L593.099 490.343ZM611.05 445.35C611.05 427.035 605.109 411.745 591.933 401.378C579.214 391.371 561.29 387.2 539.85 387.2V407.2C559.21 407.2 571.886 411.054 579.567 417.097C586.791 422.78 591.05 431.565 591.05 445.35H611.05ZM539.85 387.2H483.15V407.2H539.85V387.2ZM473.15 525.45V635.25H493.15V525.45H473.15ZM483.15 645.25H547.5V625.25H483.15V645.25ZM547.5 645.25C572.694 645.25 593.435 640.327 608.031 628.814C623.078 616.944 629.95 599.406 629.95 578.1H609.95C609.95 594.894 604.747 605.931 595.644 613.111C586.09 620.648 570.606 625.25 547.5 625.25V645.25ZM629.95 578.1C629.95 558.182 623.3 541.748 608.812 530.669C594.832 519.978 575.042 515.45 551.1 515.45V535.45C573.058 535.45 587.693 539.697 596.663 546.556C605.125 553.027 609.95 562.918 609.95 578.1H629.95ZM551.1 515.45H483.15V535.45H551.1V515.45Z" fill="black" mask="url(#path-3-outside-2_206_5)"/>
<mask id="path-5-outside-3_206_5" maskUnits="userSpaceOnUse" x="148" y="90" width="225" height="326" fill="black">
<rect fill="white" x="148" y="90" width="225" height="326"/>
<path d="M176 100.45H257.9C288.8 100.45 314 107.95 333.5 122.95C353 137.65 362.75 161.2 362.75 193.6C362.75 225.7 353 249.4 333.5 264.7C314 279.7 288.8 287.2 257.9 287.2H197.6V388.9C197.6 400.3 191.75 406 180.05 406H176C164.3 406 158.45 400.3 158.45 388.9V118C158.45 106.3 164.3 100.45 176 100.45ZM197.6 133.75V253.45H258.35C302.45 253.45 324.5 233.5 324.5 193.6C324.5 153.7 302.45 133.75 258.35 133.75H197.6Z"/>
</mask>
<path d="M176 100.45H257.9C288.8 100.45 314 107.95 333.5 122.95C353 137.65 362.75 161.2 362.75 193.6C362.75 225.7 353 249.4 333.5 264.7C314 279.7 288.8 287.2 257.9 287.2H197.6V388.9C197.6 400.3 191.75 406 180.05 406H176C164.3 406 158.45 400.3 158.45 388.9V118C158.45 106.3 164.3 100.45 176 100.45ZM197.6 133.75V253.45H258.35C302.45 253.45 324.5 233.5 324.5 193.6C324.5 153.7 302.45 133.75 258.35 133.75H197.6Z" fill="black"/>
<path d="M333.5 122.95L327.403 130.876L327.441 130.906L327.48 130.935L333.5 122.95ZM333.5 264.7L339.597 272.626L339.635 272.597L339.673 272.567L333.5 264.7ZM197.6 287.2V277.2H187.6V287.2H197.6ZM197.6 133.75V123.75H187.6V133.75H197.6ZM197.6 253.45H187.6V263.45H197.6V253.45ZM176 110.45H257.9V90.45H176V110.45ZM257.9 110.45C287.169 110.45 310.057 117.533 327.403 130.876L339.597 115.024C317.943 98.3667 290.431 90.45 257.9 90.45V110.45ZM327.48 130.935C343.701 143.163 352.75 163.226 352.75 193.6H372.75C372.75 159.174 362.299 132.137 339.52 114.965L327.48 130.935ZM352.75 193.6C352.75 223.614 343.73 243.963 327.327 256.833L339.673 272.567C362.27 254.837 372.75 227.786 372.75 193.6H352.75ZM327.403 256.774C310.057 270.117 287.169 277.2 257.9 277.2V297.2C290.431 297.2 317.943 289.283 339.597 272.626L327.403 256.774ZM257.9 277.2H197.6V297.2H257.9V277.2ZM187.6 287.2V388.9H207.6V287.2H187.6ZM187.6 388.9C187.6 392.992 186.566 394.239 186.234 394.563C185.854 394.933 184.423 396 180.05 396V416C187.377 416 194.721 414.217 200.191 408.887C205.709 403.511 207.6 396.208 207.6 388.9H187.6ZM180.05 396H176V416H180.05V396ZM176 396C171.627 396 170.196 394.933 169.816 394.563C169.484 394.239 168.45 392.992 168.45 388.9H148.45C148.45 396.208 150.341 403.511 155.859 408.887C161.329 414.217 168.673 416 176 416V396ZM168.45 388.9V118H148.45V388.9H168.45ZM168.45 118C168.45 113.691 169.52 112.297 169.909 111.909C170.297 111.52 171.691 110.45 176 110.45V90.45C168.609 90.45 161.228 92.3046 155.766 97.7664C150.305 103.228 148.45 110.609 148.45 118H168.45ZM187.6 133.75V253.45H207.6V133.75H187.6ZM197.6 263.45H258.35V243.45H197.6V263.45ZM258.35 263.45C281.708 263.45 301.093 258.188 314.672 245.903C328.44 233.446 334.5 215.364 334.5 193.6H314.5C314.5 211.736 309.535 223.579 301.253 231.072C292.782 238.737 279.092 243.45 258.35 243.45V263.45ZM334.5 193.6C334.5 171.836 328.44 153.754 314.672 141.297C301.093 129.012 281.708 123.75 258.35 123.75V143.75C279.092 143.75 292.782 148.463 301.253 156.128C309.535 163.621 314.5 175.464 314.5 193.6H334.5ZM258.35 123.75H197.6V143.75H258.35V123.75Z" fill="black" mask="url(#path-5-outside-3_206_5)"/>
</svg>
