<svg width="798" height="747" viewBox="0 0 798 747" fill="none" xmlns="http://www.w3.org/2000/svg">
<mask id="path-1-inside-1_206_5" fill="white">
<path fill-rule="evenodd" clip-rule="evenodd" d="M532 25C532 11.1929 520.807 0 507 0H25C11.1929 0 0 11.1929 0 25V473C0 486.807 11.1929 498 25 498H241C254.807 498 266 509.193 266 523V722C266 735.807 277.193 747 291 747H773C786.807 747 798 735.807 798 722V274C798 260.193 786.807 249 773 249H557C543.193 249 532 237.807 532 224V25Z"/>
</mask>
<path d="M25 20H507V-20H25V20ZM20 473V25H-20V473H20ZM241 478H25V518H241V478ZM286 722V523H246V722H286ZM773 727H291V767H773V727ZM778 274V722H818V274H778ZM557 269H773V229H557V269ZM512 25V224H552V25H512ZM557 229C554.239 229 552 226.761 552 224H512C512 248.853 532.147 269 557 269V229ZM818 274C818 249.147 797.853 229 773 229V269C775.761 269 778 271.239 778 274H818ZM773 767C797.853 767 818 746.853 818 722H778C778 724.761 775.761 727 773 727V767ZM246 722C246 746.853 266.147 767 291 767V727C288.239 727 286 724.761 286 722H246ZM241 518C243.761 518 246 520.239 246 523H286C286 498.147 265.853 478 241 478V518ZM-20 473C-20 497.853 0.147185 518 25 518V478C22.2386 478 20 475.761 20 473H-20ZM507 20C509.761 20 512 22.2386 512 25H552C552 0.147189 531.853 -20 507 -20V20ZM25 -20C0.147178 -20 -20 0.147204 -20 25H20C20 22.2386 22.2386 20 25 20V-20Z" fill="black" mask="url(#path-1-inside-1_206_5)"/>
<path d="M176 100.45H257.9C288.8 100.45 314 107.95 333.5 122.95C353 137.65 362.75 161.2 362.75 193.6C362.75 225.7 353 249.4 333.5 264.7C314 279.7 288.8 287.2 257.9 287.2H197.6V388.9C197.6 400.3 191.75 406 180.05 406H176C164.3 406 158.45 400.3 158.45 388.9V118C158.45 106.3 164.3 100.45 176 100.45ZM197.6 133.75V253.45H258.35C302.45 253.45 324.5 233.5 324.5 193.6C324.5 153.7 302.45 133.75 258.35 133.75H197.6Z" fill="black"/>
<path d="M461.55 363.45H539.85C569.85 363.45 593.85 369.9 611.85 382.8C629.85 395.7 638.85 415.5 638.85 442.2C638.85 457.8 634.8 471.45 626.7 483.15C618.6 494.55 607.95 502.35 594.75 506.55C611.85 509.55 626.7 516.6 639.3 527.7C651.9 538.8 658.2 555.6 658.2 578.1C658.2 608.7 647.85 631.5 627.15 646.5C606.75 661.5 580.2 669 547.5 669H461.55C450.15 669 444.45 663.45 444.45 652.35V381C444.45 369.3 450.15 363.45 461.55 363.45ZM483.15 397.2V494.85H543C562.8 494.85 577.35 490.8 586.65 482.7C596.25 474.6 601.05 462.15 601.05 445.35C601.05 413.25 580.65 397.2 539.85 397.2H483.15ZM483.15 525.45V635.25H547.5C595.8 635.25 619.95 616.2 619.95 578.1C619.95 543 597 525.45 551.1 525.45H483.15Z" fill="black"/>
</svg>
